<svg xmlns="http://www.w3.org/2000/svg" viewBox="0 0 24 24" fill="#fb7299">
  <path d="M17.813 4.653h.854c1.51.054 2.769.578 3.773 1.574 1.004.995 1.524 2.249 1.56 3.76v7.36c.036 1.517-.466 2.788-1.506 3.815-1.04 1.027-2.322 1.553-3.846 1.579H5.235c-1.524-.026-2.807-.552-3.848-1.579-1.04-1.027-1.542-2.298-1.506-3.815v-7.36c.036-1.511.556-2.765 1.56-3.76 1.004-.996 2.263-1.52 3.773-1.574h.774l-1.174-1.12a1.234 1.234 0 0 1-.373-.906c0-.356.124-.658.373-.907l.027-.027c.267-.249.573-.373.92-.373.347 0 .653.124.92.373L9.12 4.44c.071.071.134.142.187.213h4.907a.836.836 0 0 1 .16-.213l2.853-2.747c.267-.249.573-.373.92-.373.347 0 .662.151.929.4.267.249.391.551.391.907 0 .355-.124.657-.373.906L17.813 4.653zM5.235 8.76c-.711 0-1.32.249-1.825.747-.506.498-.767 1.107-.782 1.827v7.36c0 .707.254 1.32.76 1.84.506.52 1.12.779 1.847.779h13.474c.727 0 1.34-.26 1.846-.779.506-.52.76-1.133.76-1.84v-7.36c0-.72-.255-1.329-.767-1.827-.511-.498-1.128-.747-1.85-.747H5.235zm3.587 2.213c.356 0 .662.129.92.386.257.258.386.564.386.92v1.107c0 .356-.129.662-.386.92a1.25 1.25 0 0 1-.92.386 1.25 1.25 0 0 1-.92-.386 1.25 1.25 0 0 1-.387-.92V12.08c0-.356.13-.662.387-.92.257-.258.564-.387.92-.387zm6.4 0c.356 0 .662.129.92.386.257.258.387.564.387.92v1.107c0 .356-.13.662-.387.92a1.25 1.25 0 0 1-.92.386 1.25 1.25 0 0 1-.92-.386 1.25 1.25 0 0 1-.386-.92V12.08c0-.356.129-.662.386-.92.258-.258.564-.387.92-.387z"/>
</svg>
<svg xmlns="http://www.w3.org/2000/svg" viewBox="0 0 24 24" fill="currentColor">
  <path d="M17.813 4.653h.854c1.51.054 2.769.578 3.773 1.574 1.004.995 1.524 2.249 1.56 3.76v7.36c.036 1.517-.466 2.788-1.506 3.815-1.04 1.027-2.322 1.553-3.846 1.579H5.235c-1.524-.026-2.807-.552-3.848-1.579-1.04-1.027-1.542-2.298-1.506-3.815v-7.36c.036-1.511.556-2.765 1.56-3.76 1.004-.996 2.263-1.52 3.773-1.574h.774l-1.174-1.12a1.234 1.234 0 0 1-.373-.906c0-.356.124-.658.373-.907l.027-.027c.267-.249.573-.373.92-.373.347 0 .653.124.92.373L9.12 4.44c.071.071.134.142.187.213h4.907a.836.836 0 0 1 .16-.213l2.853-2.747c.267-.249.573-.373.92-.373.347 0 .662.151.929.4.267.249.391.551.391.907 0 .355-.124.657-.373.906L17.813 4.653zM5.235 8.76c-.711 0-1.32.249-1.825.747-.506.498-.767 1.107-.782 1.827v7.36c0 .707.254 1.32.76 1.84.506.52 1.12.779 1.847.779h13.474c.727 0 1.34-.26 1.846-.779.506-.52.76-1.133.76-1.84v-7.36c0-.72-.255-1.329-.767-1.827-.511-.498-1.128-.747-1.85-.747H5.235zm3.587 2.213c.356 0 .662.129.92.386.257.258.386.564.386.92v1.107c0 .356-.129.662-.386.92a1.25 1.25 0 0 1-.92.386 1.25 1.25 0 0 1-.92-.386 1.25 1.25 0 0 1-.387-.92V12.08c0-.356.13-.662.387-.92.257-.258.564-.387.92-.387zm6.4 0c.356 0 .662.129.92.386.257.258.387.564.387.92v1.107c0 .356-.13.662-.387.92a1.25 1.25 0 0 1-.92.386 1.25 1.25 0 0 1-.92-.386 1.25 1.25 0 0 1-.386-.92V12.08c0-.356.129-.662.386-.92.258-.258.564-.387.92-.387z"/>
</svg>
