<svg xmlns="http://www.w3.org/2000/svg" viewBox="0 0 24 24" fill="#ff4906">
  <path d="M12 2C6.48 2 2 6.48 2 12s4.48 10 10 10 10-4.48 10-10S17.52 2 12 2zm4.5 13.5c-.3.9-1.1 1.6-2.1 1.7-.5.1-1 .1-1.5 0-.7-.1-1.3-.4-1.8-.9-.2-.2-.4-.5-.5-.7-.1.3-.2.5-.4.8-.4.6-1 1-1.7 1.2-.5.1-1 .1-1.5 0-.8-.1-1.5-.6-1.9-1.3-.3-.6-.3-1.4 0-2 .2-.4.5-.7.9-1 .5-.4 1.1-.6 1.7-.7.5-.1 1-.1 1.5 0v-.7c0-.3-.1-.5-.3-.7-.2-.2-.5-.3-.8-.3-.4 0-.7.1-1 .4l-.4.4-1.4-1c.3-.5.8-.9 1.3-1.1.5-.2 1.1-.3 1.7-.3.8 0 1.5.2 2.1.7.5.4.8 1 .8 1.7v3.2c0 .3.1.5.3.6.2.1.4.1.6 0 .3-.1.5-.3.6-.6l.6-3.2-1.5-.2.3-1.8 1.6.2.2-1.2 1.8.3-.2 1.2 1.1.2-.3 1.8-1.1-.2-.4 2.5c0 .3-.1.5-.2.7zM9.5 14.3c-.3 0-.6.1-.8.3-.2.2-.3.4-.3.7 0 .3.1.5.3.7.2.2.5.3.8.2.3 0 .5-.1.7-.3.2-.2.3-.5.2-.8 0-.3-.1-.5-.3-.7-.2-.1-.4-.2-.6-.1z"/>
</svg>
<svg xmlns="http://www.w3.org/2000/svg" viewBox="0 0 24 24" fill="currentColor">
  <path d="M12 2C6.48 2 2 6.48 2 12s4.48 10 10 10 10-4.48 10-10S17.52 2 12 2zm4.5 13.5c-.3.9-1.1 1.6-2.1 1.7-.5.1-1 .1-1.5 0-.7-.1-1.3-.4-1.8-.9-.2-.2-.4-.5-.5-.7-.1.3-.2.5-.4.8-.4.6-1 1-1.7 1.2-.5.1-1 .1-1.5 0-.8-.1-1.5-.6-1.9-1.3-.3-.6-.3-1.4 0-2 .2-.4.5-.7.9-1 .5-.4 1.1-.6 1.7-.7.5-.1 1-.1 1.5 0v-.7c0-.3-.1-.5-.3-.7-.2-.2-.5-.3-.8-.3-.4 0-.7.1-1 .4l-.4.4-1.4-1c.3-.5.8-.9 1.3-1.1.5-.2 1.1-.3 1.7-.3.8 0 1.5.2 2.1.7.5.4.8 1 .8 1.7v3.2c0 .3.1.5.3.6.2.1.4.1.6 0 .3-.1.5-.3.6-.6l.6-3.2-1.5-.2.3-1.8 1.6.2.2-1.2 1.8.3-.2 1.2 1.1.2-.3 1.8-1.1-.2-.4 2.5c0 .3-.1.5-.2.7zM9.5 14.3c-.3 0-.6.1-.8.3-.2.2-.3.4-.3.7 0 .3.1.5.3.7.2.2.5.3.8.2.3 0 .5-.1.7-.3.2-.2.3-.5.2-.8 0-.3-.1-.5-.3-.7-.2-.1-.4-.2-.6-.1z"/>
</svg>
