<svg xmlns="http://www.w3.org/2000/svg" viewBox="0 0 24 24" fill="#ff2442">
  <path d="M13.871 12.246c-.387-.4-.594-.926-.594-1.498 0-.582.212-1.097.612-1.49.386-.379.912-.587 1.482-.587.57 0 1.093.212 1.487.602.393.39.608.9.608 1.475 0 .571-.215 1.086-.605 1.49-.39.404-.914.623-1.482.623-.574 0-1.101-.218-1.496-.615h-.012zm-2.564.443c-.07.127-.14.252-.208.374-.067.122-.137.247-.207.374l-.024.043v.05l-.001 1.137-.003 1.15c0 .262-.043.51-.128.737a1.67 1.67 0 0 1-.36.571 1.598 1.598 0 0 1-.554.373 1.83 1.83 0 0 1-.71.135c-.262 0-.504-.047-.718-.14a1.515 1.515 0 0 1-.55-.387 1.732 1.732 0 0 1-.346-.574 2.028 2.028 0 0 1-.121-.71V8.684c0-.247.043-.477.128-.683a1.518 1.518 0 0 1 .857-.89c.2-.083.422-.124.66-.124.24 0 .463.044.663.13.2.085.374.21.518.37.144.16.26.36.343.594l2.024 5.2c.034.087.075.198.12.327l.07.2c.018-.05.037-.104.057-.157l.087-.237c.034-.093.064-.17.09-.232l1.997-5.143a1.63 1.63 0 0 1 .359-.572c.145-.152.324-.27.532-.35.205-.078.43-.118.667-.118.24 0 .462.042.66.124a1.5 1.5 0 0 1 .513.347c.143.148.252.327.323.532.07.204.107.43.107.671v6.764c0 .253-.04.488-.121.697a1.536 1.536 0 0 1-.344.543 1.563 1.563 0 0 1-.55.357 1.926 1.926 0 0 1-.717.13 1.85 1.85 0 0 1-.706-.13 1.605 1.605 0 0 1-.547-.357 1.622 1.622 0 0 1-.351-.55 1.913 1.913 0 0 1-.126-.704l-.001-1.137-.003-1.137v-.05l-.024-.043a8.97 8.97 0 0 0-.207-.374c-.068-.122-.138-.247-.208-.374l-1.393-2.493-.064-.115-1.477 2.608zM3.6 3h16.8c.443 0 .846.18 1.137.47.29.29.463.672.463 1.103v14.854c0 .431-.173.813-.463 1.103a1.605 1.605 0 0 1-1.137.47H3.6c-.443 0-.846-.18-1.137-.47A1.554 1.554 0 0 1 2 19.427V4.573c0-.431.173-.813.463-1.103A1.605 1.605 0 0 1 3.6 3z"/>
</svg>
<svg xmlns="http://www.w3.org/2000/svg" viewBox="0 0 24 24" fill="currentColor">
  <path d="M13.871 12.246c-.387-.4-.594-.926-.594-1.498 0-.582.212-1.097.612-1.49.386-.379.912-.587 1.482-.587.57 0 1.093.212 1.487.602.393.39.608.9.608 1.475 0 .571-.215 1.086-.605 1.49-.39.404-.914.623-1.482.623-.574 0-1.101-.218-1.496-.615h-.012zm-2.564.443c-.07.127-.14.252-.208.374-.067.122-.137.247-.207.374l-.024.043v.05l-.001 1.137-.003 1.15c0 .262-.043.51-.128.737a1.67 1.67 0 0 1-.36.571 1.598 1.598 0 0 1-.554.373 1.83 1.83 0 0 1-.71.135c-.262 0-.504-.047-.718-.14a1.515 1.515 0 0 1-.55-.387 1.732 1.732 0 0 1-.346-.574 2.028 2.028 0 0 1-.121-.71V8.684c0-.247.043-.477.128-.683a1.518 1.518 0 0 1 .857-.89c.2-.083.422-.124.66-.124.24 0 .463.044.663.13.2.085.374.21.518.37.144.16.26.36.343.594l2.024 5.2c.034.087.075.198.12.327l.07.2c.018-.05.037-.104.057-.157l.087-.237c.034-.093.064-.17.09-.232l1.997-5.143a1.63 1.63 0 0 1 .359-.572c.145-.152.324-.27.532-.35.205-.078.43-.118.667-.118.24 0 .462.042.66.124a1.5 1.5 0 0 1 .513.347c.143.148.252.327.323.532.07.204.107.43.107.671v6.764c0 .253-.04.488-.121.697a1.536 1.536 0 0 1-.344.543 1.563 1.563 0 0 1-.55.357 1.926 1.926 0 0 1-.717.13 1.85 1.85 0 0 1-.706-.13 1.605 1.605 0 0 1-.547-.357 1.622 1.622 0 0 1-.351-.55 1.913 1.913 0 0 1-.126-.704l-.001-1.137-.003-1.137v-.05l-.024-.043a8.97 8.97 0 0 0-.207-.374c-.068-.122-.138-.247-.208-.374l-1.393-2.493-.064-.115-1.477 2.608zM3.6 3h16.8c.443 0 .846.18 1.137.47.29.29.463.672.463 1.103v14.854c0 .431-.173.813-.463 1.103a1.605 1.605 0 0 1-1.137.47H3.6c-.443 0-.846-.18-1.137-.47A1.554 1.554 0 0 1 2 19.427V4.573c0-.431.173-.813.463-1.103A1.605 1.605 0 0 1 3.6 3z"/>
</svg>
